<?xml version="1.0" encoding="UTF-8" standalone="no"?>
<!DOCTYPE svg PUBLIC "-//W3C//DTD SVG 1.1//EN"
 "http://www.w3.org/Graphics/SVG/1.1/DTD/svg11.dtd">
<!-- Generated by graphviz version 2.38.0 (20140413.2041)
 -->
<!-- Title: G Pages: 1 -->
<svg width="738pt" height="46pt"
 viewBox="0.00 0.00 738.00 46.00" xmlns="http://www.w3.org/2000/svg" xmlns:xlink="http://www.w3.org/1999/xlink">
<g id="graph0" class="graph" transform="scale(1 1) rotate(0) translate(4 42)">
<title>G</title>
<polygon fill="white" stroke="none" points="-4,4 -4,-42 734,-42 734,4 -4,4"/>
<!-- A -->
<g id="node1" class="node"><title>A</title>
<polygon fill="none" stroke="black" points="69,-37 0,-37 0,-1 69,-1 69,-37"/>
<text text-anchor="middle" x="34.5" y="-15.3" font-family="Times New Roman,serif" font-size="14.00">Mikrofon</text>
</g>
<!-- B -->
<g id="node2" class="node"><title>B</title>
<polygon fill="none" stroke="black" points="190,-38 105,-38 105,-0 190,-0 190,-38"/>
<text text-anchor="middle" x="147.5" y="-22.8" font-family="Times New Roman,serif" font-size="14.00">Vor&#45;</text>
<text text-anchor="middle" x="147.5" y="-7.8" font-family="Times New Roman,serif" font-size="14.00">verarbeitung</text>
</g>
<!-- A&#45;&gt;B -->
<g id="edge1" class="edge"><title>A&#45;&gt;B</title>
<path fill="none" stroke="black" d="M69.1049,-19C77.1767,-19 85.9844,-19 94.6716,-19"/>
<polygon fill="black" stroke="black" points="94.763,-22.5001 104.763,-19 94.763,-15.5001 94.763,-22.5001"/>
</g>
<!-- C -->
<g id="node3" class="node"><title>C</title>
<polygon fill="none" stroke="black" points="315,-38 226,-38 226,-0 315,-0 315,-38"/>
<text text-anchor="middle" x="270.5" y="-22.8" font-family="Times New Roman,serif" font-size="14.00">Stimulations&#45;</text>
<text text-anchor="middle" x="270.5" y="-7.8" font-family="Times New Roman,serif" font-size="14.00">strategie</text>
</g>
<!-- B&#45;&gt;C -->
<g id="edge2" class="edge"><title>B&#45;&gt;C</title>
<path fill="none" stroke="black" d="M190.141,-19C198.306,-19 206.98,-19 215.482,-19"/>
<polygon fill="black" stroke="black" points="215.72,-22.5001 225.72,-19 215.72,-15.5001 215.72,-22.5001"/>
</g>
<!-- D -->
<g id="node4" class="node"><title>D</title>
<polygon fill="none" stroke="black" points="405,-38 351,-38 351,-0 405,-0 405,-38"/>
<text text-anchor="middle" x="378" y="-22.8" font-family="Times New Roman,serif" font-size="14.00">RF</text>
<text text-anchor="middle" x="378" y="-7.8" font-family="Times New Roman,serif" font-size="14.00">Spule</text>
</g>
<!-- C&#45;&gt;D -->
<g id="edge3" class="edge"><title>C&#45;&gt;D</title>
<path fill="none" stroke="black" d="M315.02,-19C323.561,-19 332.434,-19 340.708,-19"/>
<polygon fill="black" stroke="black" points="340.796,-22.5001 350.796,-19 340.796,-15.5001 340.796,-22.5001"/>
</g>
<!-- E -->
<g id="node5" class="node"><title>E</title>
<polygon fill="none" stroke="black" points="506,-37 441,-37 441,-1 506,-1 506,-37"/>
<text text-anchor="middle" x="473.5" y="-15.3" font-family="Times New Roman,serif" font-size="14.00">Dekoder</text>
</g>
<!-- D&#45;&gt;E -->
<g id="edge4" class="edge"><title>D&#45;&gt;E</title>
<path fill="none" stroke="black" d="M405.045,-19C413.046,-19 422.06,-19 430.833,-19"/>
<polygon fill="black" stroke="black" points="430.945,-22.5001 440.945,-19 430.945,-15.5001 430.945,-22.5001"/>
</g>
<!-- F -->
<g id="node6" class="node"><title>F</title>
<polygon fill="none" stroke="black" points="617,-38 542,-38 542,-0 617,-0 617,-38"/>
<text text-anchor="middle" x="579.5" y="-22.8" font-family="Times New Roman,serif" font-size="14.00">Puls</text>
<text text-anchor="middle" x="579.5" y="-7.8" font-family="Times New Roman,serif" font-size="14.00">Erzeugung</text>
</g>
<!-- E&#45;&gt;F -->
<g id="edge5" class="edge"><title>E&#45;&gt;F</title>
<path fill="none" stroke="black" d="M506.269,-19C514.253,-19 522.99,-19 531.544,-19"/>
<polygon fill="black" stroke="black" points="531.824,-22.5001 541.824,-19 531.824,-15.5001 531.824,-22.5001"/>
</g>
<!-- G -->
<g id="node7" class="node"><title>G</title>
<polygon fill="none" stroke="black" points="730,-37 653,-37 653,-1 730,-1 730,-37"/>
<text text-anchor="middle" x="691.5" y="-15.3" font-family="Times New Roman,serif" font-size="14.00">Elektroden</text>
</g>
<!-- F&#45;&gt;G -->
<g id="edge6" class="edge"><title>F&#45;&gt;G</title>
<path fill="none" stroke="black" d="M617.128,-19C625.304,-19 634.091,-19 642.644,-19"/>
<polygon fill="black" stroke="black" points="642.904,-22.5001 652.904,-19 642.904,-15.5001 642.904,-22.5001"/>
</g>
</g>
</svg>
